<?xml version="1.0" encoding="utf-8"?>
<!-- Generator: Adobe Illustrator 19.0.0, SVG Export Plug-In . SVG Version: 6.00 Build 0)  -->
<svg version="1.1" id="Layer_1" xmlns="http://www.w3.org/2000/svg" xmlns:xlink="http://www.w3.org/1999/xlink" x="0px" y="0px"
	 viewBox="150 160 280 280" style="enable-background:new 150 160 280 280;" xml:space="preserve">
<style type="text/css">
	.st0{fill:rgba(0,0,0,0);}
</style>
<g id="XMLID_1_">
	<g id="XMLID_5_">
		<path id="XMLID_26_" class="st0" d="M217.8,405.5c-14.2,0-28.4,0-42.6,0c-0.3,0-1.1,0.4-0.9-0.5c3.3,0,6.6,0,9.9,0
			c7.9-0.1,13.2-5.4,13.2-13.2c0-6.5-2.7-10.5-8.2-11.9c-1.6-0.4-3.2-0.6-4.9-0.7c-3.3-0.1-6.7,0-10,0c0-43.8,0-87.7,0-131.6
			c81.7,0,163.5,0,245.2,0c0,52.7,0,105.3,0,158c-17.9,0-35.9,0-53.9,0c0.1-0.1,0.2-0.2,0.3-0.2c1.7-0.9,2.2-2,1.8-3.5
			c-0.3-1.3-1.7-2.1-3.3-2.1c-1.7,0-2.9,1-3.2,2.4c-0.3,1.4,0.4,2.4,2.3,3.4c-6.9,0-13.9,0-20.8,0c0.4-0.1,0.8-0.2,1.1-0.3
			c3.8-0.6,6.2-2.8,6.8-6c0.7-3.5-0.8-6.3-4.2-8.3c-1-0.6-2.1-1-3.1-1.5c-1.1-0.6-2.3-1.1-3.2-1.8c-1.5-1.2-1.3-3.1,0.4-3.9
			c0.8-0.4,1.8-0.7,2.7-0.6c2.2,0.3,4.3,0.8,6.5,1.3c0-1.2,0-2.7,0-4.2c0-0.3-0.3-0.8-0.6-0.8c-4.2-1.2-8.4-1.4-12.3,0.6
			c-4.6,2.3-5.2,8.6-1.1,11.8c1.5,1.2,3.3,1.8,5,2.8c1.1,0.6,2.3,1.2,3.3,2c1.4,1.2,1,3-0.6,3.8c-0.8,0.4-1.7,0.5-2.6,0.6
			c-2.7,0.1-5.1-0.8-7.5-2.5c0,1.7,0,3.2,0,4.7c0,0.8,0.3,1.2,1.1,1.4c1.3,0.3,2.6,0.7,3.8,1c-7.6,0-15.1,0-22.7,0
			c1.9-0.5,3.7-1.1,5.6-1.6c0.8-0.2,1.2-0.7,1.1-1.7c-0.1-1.5,0-2.9,0-4.4c0-2.5,0-4.9,0-7.5c-3.7,0-7.3,0-10.9,0c0,1.6,0,3.1,0,4.8
			c1.7,0,3.3,0,5.1,0c0,1.5,0,3,0,4.4c0,0.3-0.3,0.7-0.6,0.8c-3,1.2-7.3-0.1-8.9-2.8c-2-3.5-2.1-7.2,0-10.6c2-3.4,5.4-4,9-3.4
			c1.7,0.3,3.4,0.9,5.2,1.3c0-1.5,0.1-3,0-4.5c0-0.3-0.5-0.8-0.9-0.9c-3.4-1-6.8-1.2-10.3-0.5c-7.2,1.5-11.4,7.8-10.4,15.6
			c0.6,5.2,3.4,8.7,8.5,10.3c0.8,0.3,1.7,0.4,2.6,0.6c-29.4,0-58.7,0-88.1,0c2.1-0.6,4.3-1.2,6-2.6c3.7-3.1,4.9-7.2,4.7-11.9
			c-0.2-8.8-7.5-14.5-16.8-11.8c-4.9,1.4-8.2,6-8.6,11.7c-0.3,4.9,0.8,9.3,5,12.2C214,404.2,216,404.7,217.8,405.5z M312.3,247.4
			c0,3.3,0,6.3,0,9.2c0,0.4,0.5,0.9,1,1.1c1.1,0.7,2.4,1.2,3.5,1.8c6.5,3.7,11.6,8.7,15,15.5c3.1,6.4,4.1,13.2,4.5,20.2
			c0.2,4.8-0.3,9.6-1.6,14.2c-2.1,7.5-5.8,13.9-11.8,18.9c-5.1,4.2-11,6.6-17.4,8c-7.9,1.7-15.8,1.3-23.8,1.4
			c-0.8,0-0.9-0.4-0.9-1.1c0-1.8,0-3.6,0-5.3c0-12.9,0-25.9,0-38.8c0-1.8,0-1.8-1.7-1.8c-2,0-4,0-6,0c-1.8,0-1.8,0-1.8,1.8
			c0,14.6,0,29.2,0,43.8c0,3.1,0,6.1,0,9.2c0,0.8,0.1,1.4,1.1,1.3c9.7-0.2,19.5,0.5,29.2-0.6c7.3-0.8,14.4-2.6,20.7-6.4
			c14.8-8.6,21.9-22,23.3-38.7c0.6-6.6-0.1-13.2-1.6-19.7c-1.3-5.8-3.5-11.2-6.9-16.1c-5.1-7.3-12.1-12.3-20.1-15.9
			C315.6,248.7,314.1,248.2,312.3,247.4z M313.8,299.8c2.7,0,5.4,0,8.1,0c1,0,1.3-0.3,1.2-1.2c-0.2-2.6-0.1-5.2-0.5-7.7
			c-1.7-8.8-6.4-15.8-13.6-21.1c-7.9-5.8-17-7.9-26.6-8.2c-10.4-0.3-20.8-0.1-31.2-0.2c-1.7,0-1.8,0-1.8,1.8c0,18.5,0,37,0,55.5
			c0,1.9,0,3.8,0,5.7c0,1.1,0.3,1.5,1.4,1.4c2-0.1,3.9,0,5.9,0c2.5,0,2.2,0.2,2.2-2.2c0-17.3,0-34.6,0-51.9c0-1,0-1.6,1.3-1.5
			c8.3,0.2,16.5,0.1,24.8,0.5c6,0.3,11.7,1.9,16.9,5.1c6.4,4,10.4,9.7,11.4,17.3C313.6,295.3,313.6,297.4,313.8,299.8z M269.3,404.9
			c0-6,0-11.9,0-18c3.8,5.8,7.5,11.5,11.2,17.1c0.2,0.4,0.6,0.9,1,0.9c1.8,0.1,3.7,0,5.5,0c0-8.7,0-17.2,0-25.8c-1.8,0-3.6,0-5.5,0
			c0,5.8,0,11.5,0,17.5c-3.8-5.7-7.3-11.2-10.9-16.6c-0.2-0.4-0.7-0.9-1-0.9c-1.9-0.1-3.9,0-5.8,0c0,8.7,0,17.3,0,25.8
			C265.6,404.9,267.4,404.9,269.3,404.9z M402.5,404.9c0-0.3,0-0.4,0-0.6c-2.9-8.2-5.8-16.4-8.8-24.5c-0.1-0.3-0.7-0.7-1.1-0.7
			c-1.6-0.1-3.3,0-4.9-0.1c-0.8,0-1.2,0.2-1.5,1.1c-1.9,5.3-3.9,10.7-5.8,16c-1.1,2.9-2.1,5.8-3.2,8.9c1.8,0,3.4-0.1,5.1,0
			c0.9,0,1.4-0.2,1.7-1.2c0.4-1.5,0.9-2.9,1.4-4.4c2.9,0,5.7,0,8.5,0c0.4,0,0.9,0.5,1,0.8c0.5,1.3,0.8,2.6,1.3,3.9
			c0.1,0.3,0.6,0.8,0.9,0.8C398.8,405,400.6,404.9,402.5,404.9z M250.3,404.9c0-8.6,0-17.2,0-25.7c-2,0-3.8,0-5.7,0
			c0,8.6,0,17.1,0,25.7C246.5,404.9,248.3,404.9,250.3,404.9z M419.2,404.9c0-8.6,0-17.2,0-25.7c-2,0-3.8,0-5.7,0
			c0,8.6,0,17.1,0,25.7C415.4,404.9,417.3,404.9,419.2,404.9z"/>
		<path id="XMLID_23_" d="M174.3,379c3.3,0,6.7-0.1,10,0c1.6,0,3.3,0.2,4.9,0.7c5.5,1.5,8.2,5.5,8.2,11.9c0,7.9-5.3,13.2-13.2,13.2
			c-3.3,0-6.6,0-9.9,0C174.3,396.3,174.3,387.7,174.3,379z M180.3,383.9c0,5.5,0,10.8,0,16.2c3.8,0.2,7.5,0.3,9.7-3.4
			c1.8-3.1,1.9-6.4,0.1-9.5C187.8,383.5,184,383.8,180.3,383.9z"/>
		<path id="XMLID_20_" d="M217.8,405.5c-1.8-0.8-3.8-1.3-5.4-2.4c-4.2-3-5.3-7.4-5-12.2c0.4-5.7,3.7-10.3,8.6-11.7
			c9.3-2.7,16.5,3,16.8,11.8c0.1,4.7-1,8.8-4.7,11.9c-1.8,1.5-3.9,2.1-6,2.6C220.6,405.5,219.2,405.5,217.8,405.5z M226.9,392.2
			c-0.4-1.8-0.6-3.4-1.2-5c-0.8-2.2-2.6-3.5-5-3.6c-2.5-0.2-4.5,0.7-5.7,2.9c-2,3.5-2,7.2-0.2,10.8c1.1,2.1,3,3.2,5.5,3.1
			c2.4-0.1,4.3-1.2,5.3-3.4C226.3,395.5,226.5,393.8,226.9,392.2z"/>
		<path id="XMLID_19_" d="M310.1,405.5c-0.9-0.2-1.7-0.4-2.6-0.6c-5.1-1.6-7.9-5.1-8.5-10.3c-1-7.9,3.3-14.1,10.4-15.6
			c3.5-0.7,6.9-0.5,10.3,0.5c0.4,0.1,0.9,0.6,0.9,0.9c0.1,1.5,0,3,0,4.5c-1.8-0.5-3.4-1-5.2-1.3c-3.6-0.6-7,0-9,3.4
			c-2.1,3.5-2,7.1,0,10.6c1.6,2.7,5.9,4,8.9,2.8c0.3-0.1,0.6-0.5,0.6-0.8c0.1-1.4,0-2.8,0-4.4c-1.7,0-3.3,0-5.1,0c0-1.6,0-3.2,0-4.8
			c3.6,0,7.2,0,10.9,0c0,2.5,0,5,0,7.5c0,1.5-0.1,2.9,0,4.4c0.1,0.9-0.3,1.4-1.1,1.7c-1.9,0.5-3.7,1.1-5.6,1.6
			C313.5,405.5,311.8,405.5,310.1,405.5z"/>
		<path id="XMLID_18_" d="M337.9,405.5c-1.3-0.3-2.6-0.7-3.8-1c-0.7-0.2-1.1-0.6-1.1-1.4c0.1-1.5,0-3,0-4.7c2.4,1.7,4.8,2.7,7.5,2.5
			c0.9,0,1.8-0.2,2.6-0.6c1.7-0.8,2-2.6,0.6-3.8c-0.9-0.8-2.1-1.4-3.3-2c-1.7-0.9-3.5-1.6-5-2.8c-4.1-3.2-3.5-9.5,1.1-11.8
			c4-2,8.2-1.8,12.3-0.6c0.3,0.1,0.6,0.5,0.6,0.8c0.1,1.5,0,3,0,4.2c-2.2-0.4-4.3-1-6.5-1.3c-0.9-0.1-1.9,0.2-2.7,0.6
			c-1.7,0.8-1.9,2.7-0.4,3.9c1,0.7,2.1,1.3,3.2,1.8c1,0.5,2.1,0.9,3.1,1.5c3.4,1.9,4.9,4.8,4.2,8.3c-0.6,3.3-3,5.4-6.8,6
			c-0.4,0.1-0.8,0.2-1.1,0.3C341.1,405.5,339.5,405.5,337.9,405.5z"/>
		<path id="XMLID_17_" d="M363.5,405.5c-1.9-1-2.6-2.1-2.3-3.4c0.3-1.4,1.6-2.4,3.2-2.4c1.6,0,3,0.8,3.3,2.1
			c0.4,1.6-0.2,2.7-1.8,3.5c-0.1,0.1-0.2,0.2-0.3,0.2C364.9,405.5,364.2,405.5,363.5,405.5z"/>
		<path id="XMLID_16_" d="M312.3,247.4c1.8,0.7,3.3,1.3,4.7,1.9c8,3.6,15,8.6,20.1,15.9c3.4,4.9,5.6,10.3,6.9,16.1
			c1.5,6.5,2.1,13.1,1.6,19.7c-1.4,16.7-8.5,30.1-23.3,38.7c-6.4,3.7-13.4,5.5-20.7,6.4c-9.7,1.1-19.5,0.4-29.2,0.6
			c-1,0-1.1-0.5-1.1-1.3c0-3.1,0-6.1,0-9.2c0-14.6,0-29.2,0-43.8c0-1.8,0-1.8,1.8-1.8c2,0,4,0,6,0c1.7,0,1.7,0,1.7,1.8
			c0,12.9,0,25.9,0,38.8c0,1.8,0,3.6,0,5.3c0,0.7,0.1,1.1,0.9,1.1c7.9-0.1,15.9,0.4,23.8-1.4c6.4-1.4,12.3-3.8,17.4-8
			c6-5,9.8-11.4,11.8-18.9c1.3-4.7,1.8-9.4,1.6-14.2c-0.3-7-1.3-13.8-4.5-20.2c-3.3-6.8-8.5-11.8-15-15.5c-1.2-0.7-2.4-1.2-3.5-1.8
			c-0.4-0.2-0.9-0.7-1-1.1C312.3,253.7,312.3,250.8,312.3,247.4z"/>
		<path id="XMLID_15_" d="M313.8,299.8c-0.2-2.4-0.2-4.6-0.5-6.7c-1.1-7.5-5-13.3-11.4-17.3c-5.2-3.2-10.9-4.8-16.9-5.1
			c-8.3-0.4-16.5-0.3-24.8-0.5c-1.3,0-1.3,0.6-1.3,1.5c0,17.3,0,34.6,0,51.9c0,2.5,0.3,2.2-2.2,2.2c-2,0-3.9-0.1-5.9,0
			c-1.2,0.1-1.5-0.4-1.4-1.4c0.1-1.9,0-3.8,0-5.7c0-18.5,0-37,0-55.5c0-1.8,0-1.8,1.8-1.8c10.4,0,20.8-0.2,31.2,0.2
			c9.5,0.3,18.7,2.4,26.6,8.2c7.2,5.3,11.9,12.2,13.6,21.1c0.5,2.5,0.4,5.1,0.5,7.7c0.1,0.9-0.3,1.3-1.2,1.2
			C319.2,299.8,316.5,299.8,313.8,299.8z"/>
		<path id="XMLID_14_" d="M269.3,404.9c-1.9,0-3.7,0-5.5,0c0-8.6,0-17.1,0-25.8c1.9,0,3.9,0,5.8,0c0.4,0,0.8,0.5,1,0.9
			c3.6,5.4,7.2,10.9,10.9,16.6c0-6,0-11.7,0-17.5c1.9,0,3.7,0,5.5,0c0,8.6,0,17.1,0,25.8c-1.8,0-3.7,0-5.5,0c-0.3,0-0.7-0.6-1-0.9
			c-3.7-5.6-7.4-11.3-11.2-17.1C269.3,393,269.3,398.9,269.3,404.9z"/>
		<path id="XMLID_11_" d="M402.5,404.9c-1.9,0-3.7,0-5.5,0c-0.3,0-0.8-0.5-0.9-0.8c-0.5-1.3-0.8-2.6-1.3-3.9c-0.1-0.4-0.7-0.8-1-0.8
			c-2.8-0.1-5.6,0-8.5,0c-0.5,1.5-1,3-1.4,4.4c-0.2,1-0.7,1.2-1.7,1.2c-1.6-0.1-3.3,0-5.1,0c1.1-3.1,2.2-5.9,3.2-8.9
			c1.9-5.3,3.9-10.6,5.8-16c0.3-0.8,0.7-1.1,1.5-1.1c1.6,0.1,3.3,0,4.9,0.1c0.4,0,1,0.4,1.1,0.7c3,8.2,5.9,16.3,8.8,24.5
			C402.5,404.5,402.5,404.7,402.5,404.9z M389.8,384.2c-1.1,3.5-2.2,7-3.3,10.5c2.3,0,4.4,0,6.6,0
			C392,391.1,390.9,387.6,389.8,384.2z"/>
		<path id="XMLID_10_" d="M250.3,404.9c-2,0-3.8,0-5.7,0c0-8.6,0-17.1,0-25.7c1.9,0,3.7,0,5.7,0
			C250.3,387.7,250.3,396.2,250.3,404.9z"/>
		<path id="XMLID_9_" d="M419.2,404.9c-1.9,0-3.8,0-5.7,0c0-8.6,0-17.1,0-25.7c1.9,0,3.7,0,5.7,0
			C419.2,387.7,419.2,396.2,419.2,404.9z"/>
		<path id="XMLID_8_" class="st0" d="M180.3,383.9c3.7-0.1,7.5-0.4,9.7,3.3c1.9,3.1,1.8,6.4-0.1,9.5c-2.2,3.7-5.9,3.6-9.7,3.4
			C180.3,394.7,180.3,389.4,180.3,383.9z"/>
		<path id="XMLID_7_" class="st0" d="M226.9,392.2c-0.4,1.6-0.7,3.3-1.3,4.8c-1,2.2-2.9,3.3-5.3,3.4c-2.4,0.1-4.4-1-5.5-3.1
			c-1.9-3.6-1.8-7.3,0.2-10.8c1.2-2.2,3.3-3.1,5.7-2.9c2.4,0.2,4.1,1.4,5,3.6C226.3,388.7,226.5,390.4,226.9,392.2z"/>
		<path id="XMLID_6_" class="st0" d="M389.8,384.2c1.1,3.4,2.2,6.9,3.3,10.5c-2.2,0-4.3,0-6.6,0
			C387.6,391.2,388.7,387.7,389.8,384.2z"/>
	</g>
</g>
</svg>
